<svg width="25.500000" height="28.333252" viewBox="0 0 25.5 28.3333" fill="none" xmlns="http://www.w3.org/2000/svg" xmlns:xlink="http://www.w3.org/1999/xlink">
	<desc>
			Created with Pixso.
	</desc>
	<defs/>
	<path id="Combined-Shape" d="M12.757 0C16.5536 0 19.6749 2.9834 19.8333 6.76367L19.7963 6.76367C19.8008 6.87354 19.7797 6.98291 19.7346 7.08325L19.9558 7.08325C21.6799 7.08325 23.4853 8.27832 24.2092 11.1631L24.2878 11.5034L25.3771 20.2793C26.161 25.8765 23.0987 28.2302 18.9213 28.3301L18.6412 28.3333L6.89709 28.3333C2.65167 28.3333 -0.619751 26.7864 0.0995483 20.6602L0.148621 20.2793L1.25043 11.5034C1.7937 8.39673 3.61761 7.17163 5.375 7.08789L5.56995 7.08325L5.68066 7.08325C5.66199 6.97754 5.66199 6.86938 5.68066 6.76367C5.83911 2.9834 8.96039 0 12.757 0ZM8.63739 11.7998C7.94592 11.7998 7.38538 12.3767 7.38538 13.0884C7.38538 13.8003 7.94592 14.3772 8.63739 14.3772C9.32892 14.3772 9.88947 13.8003 9.88947 13.0884L9.8797 12.9268C9.80243 12.2915 9.2757 11.7998 8.63739 11.7998ZM16.8383 11.7998C16.1468 11.7998 15.5862 12.3767 15.5862 13.0884C15.5862 13.8003 16.1468 14.3772 16.8383 14.3772C17.5297 14.3772 18.0903 13.8003 18.0903 13.0884C18.0903 12.3767 17.5297 11.7998 16.8383 11.7998ZM12.7015 1.84497C9.97565 1.84497 7.76593 4.04712 7.76593 6.76367C7.78461 6.86938 7.78461 6.97754 7.76593 7.08325L17.6987 7.08325C17.6593 6.9812 17.6384 6.87305 17.637 6.76367C17.637 4.04712 15.4273 1.84497 12.7015 1.84497Z" fill="#FFFFFF" fill-opacity="1.000000" fill-rule="nonzero"/>
</svg>
