<svg width="48.743042" height="48.743042" viewBox="0 0 48.743 48.743" fill="none" xmlns="http://www.w3.org/2000/svg" xmlns:xlink="http://www.w3.org/1999/xlink">
	<desc>
			Created with Pixso.
	</desc>
	<defs>
		<clipPath id="clip324_227">
			<rect id="bx:bx-plus" width="24.371523" height="24.371523" transform="translate(12.185669 12.185791)" fill="white" fill-opacity="0"/>
		</clipPath>
	</defs>
	<rect id="Frame 174" rx="24.371521" width="48.743042" height="48.743042" fill="#0D1B39" fill-opacity="1.000000"/>
	<rect id="bx:bx-plus" width="24.371523" height="24.371523" transform="translate(12.185669 12.185791)" fill="#FFFFFF" fill-opacity="0"/>
	<g clip-path="url(#clip324_227)">
		<path id="Vector" d="M32.7287 22.9788L25.7654 22.9788L25.7654 16.0154C25.7654 15.2463 25.1419 14.6228 24.3727 14.6228C23.6036 14.6228 22.9801 15.2463 22.9801 16.0154L22.9801 22.9788L16.0168 22.9788C15.2477 22.9788 14.6241 23.6023 14.6241 24.3714C14.6241 25.1406 15.2477 25.7641 16.0168 25.7641L22.9801 25.7641L22.9801 32.7274C22.9801 33.4965 23.6036 34.12 24.3727 34.12C25.1419 34.12 25.7654 33.4965 25.7654 32.7274L25.7654 25.7641L32.7287 25.7641C33.4978 25.7641 34.1214 25.1406 34.1214 24.3714C34.1214 23.6023 33.4978 22.9788 32.7287 22.9788Z" fill="#FFFFFF" fill-opacity="1.000000" fill-rule="nonzero"/>
	</g>
</svg>
