<svg width="24.371521" height="24.371521" viewBox="0 0 24.3715 24.3715" fill="none" xmlns="http://www.w3.org/2000/svg" xmlns:xlink="http://www.w3.org/1999/xlink">
	<desc>
			Created with Pixso.
	</desc>
	<defs>
		<clipPath id="clip324_116">
			<rect id="bx:bx-plus" width="24.371523" height="24.371523" fill="white" fill-opacity="0"/>
		</clipPath>
	</defs>
	<rect id="bx:bx-plus" width="24.371523" height="24.371523" fill="#FFFFFF" fill-opacity="0"/>
	<g clip-path="url(#clip324_116)">
		<path id="Vector" d="M20.5362 10.793L13.5729 10.793L13.5729 3.82965C13.5729 3.06055 12.9494 2.43701 12.1802 2.43701C11.4111 2.43701 10.7876 3.06055 10.7876 3.82965L10.7876 10.793L3.82431 10.793C3.05515 10.793 2.43164 11.4165 2.43164 12.1856C2.43164 12.9548 3.05515 13.5783 3.82431 13.5783L10.7876 13.5783L10.7876 20.5416C10.7876 21.3107 11.4111 21.9342 12.1802 21.9342C12.9494 21.9342 13.5729 21.3107 13.5729 20.5416L13.5729 13.5783L20.5362 13.5783C21.3053 13.5783 21.9289 12.9548 21.9289 12.1856C21.9289 11.4165 21.3053 10.793 20.5362 10.793Z" fill="#FFFFFF" fill-opacity="1.000000" fill-rule="nonzero"/>
	</g>
</svg>
