<svg width="18.278625" height="18.278809" viewBox="0 0 18.2786 18.2788" fill="none" xmlns="http://www.w3.org/2000/svg" xmlns:xlink="http://www.w3.org/1999/xlink">
	<desc>
			Created with Pixso.
	</desc>
	<defs>
		<clipPath id="clip324_140">
			<rect id="Star" width="18.278625" height="18.278809" fill="white" fill-opacity="0"/>
		</clipPath>
	</defs>
	<rect id="Star" width="18.278625" height="18.278809" fill="#000000" fill-opacity="0"/>
	<g clip-path="url(#clip324_140)">
		<path id="Vector" d="M13.6494 10.9061C13.4521 11.0973 13.3615 11.3738 13.4064 11.6449L14.0835 15.392C14.1406 15.7097 14.0066 16.0311 13.7408 16.2146C13.4803 16.405 13.1338 16.4279 12.8497 16.2755L9.4765 14.5162C9.35922 14.4537 9.22897 14.4202 9.0957 14.4164L8.88928 14.4164C8.81772 14.4271 8.74765 14.45 8.68365 14.485L5.30972 16.2527C5.14294 16.3364 4.95407 16.3661 4.76898 16.3364C4.31812 16.2512 4.01727 15.8216 4.09116 15.3684L4.76898 11.6213C4.81393 11.3478 4.7233 11.0699 4.52603 10.8757L1.77588 8.21002C1.54587 7.98682 1.46588 7.65173 1.57098 7.34937C1.67303 7.04779 1.93353 6.82764 2.24808 6.77814L6.03326 6.229C6.32114 6.19934 6.57401 6.02417 6.70349 5.7652L8.3714 2.34552C8.41101 2.26941 8.46204 2.19934 8.52371 2.13989L8.59225 2.08661C8.62805 2.047 8.66919 2.01422 8.71487 1.98761L8.79791 1.95709L8.92737 1.90381L9.24802 1.90381C9.53439 1.93353 9.78647 2.10486 9.91824 2.36078L11.6082 5.7652C11.7301 6.01428 11.9669 6.18713 12.2404 6.229L16.0256 6.77814C16.3455 6.82385 16.6128 7.04474 16.7186 7.34937C16.8184 7.65479 16.7324 7.98987 16.4978 8.21002L13.6494 10.9061Z" fill="#F6B76F" fill-opacity="1.000000" fill-rule="nonzero"/>
	</g>
</svg>
