<svg width="9.170837" height="7.297363" viewBox="0 0 9.17084 7.29736" fill="none" xmlns="http://www.w3.org/2000/svg" xmlns:xlink="http://www.w3.org/1999/xlink">
	<desc>
			Created with Pixso.
	</desc>
	<defs/>
	<path id="Vector" d="M7.7453 0.232666C7.90375 0.0817871 8.11469 -0.00170898 8.3335 0C8.55225 0.00170898 8.7619 0.0883789 8.91803 0.241455C9.07422 0.394775 9.16473 0.602783 9.17053 0.821533C9.17633 1.04028 9.09692 1.25269 8.94904 1.41382L4.46033 7.02759C4.38312 7.11084 4.28998 7.17749 4.1864 7.22388C4.08282 7.27002 3.97101 7.29517 3.8576 7.29712C3.74414 7.29932 3.63147 7.27856 3.52625 7.23608C3.42108 7.1936 3.3255 7.13037 3.2453 7.05005L0.268555 4.07349C0.185669 3.99609 0.119141 3.90308 0.0730591 3.79956C0.0269165 3.69604 0.00213623 3.58423 0.00012207 3.47095C-0.00189209 3.35767 0.0189819 3.24512 0.0614014 3.14014C0.103821 3.03516 0.166992 2.9397 0.247131 2.85938C0.327271 2.7793 0.422668 2.71631 0.527771 2.67383C0.632812 2.63135 0.745361 2.6106 0.858643 2.61255C0.971924 2.6145 1.08368 2.6394 1.18713 2.6853C1.29065 2.73145 1.38379 2.7981 1.46106 2.88086L3.81677 5.2356L7.72394 0.257324C7.73096 0.248779 7.73846 0.240479 7.7464 0.232666L7.7453 0.232666Z" fill="#FFFFFF" fill-opacity="1.000000" fill-rule="nonzero"/>
</svg>
