<svg width="74.426636" height="19.991943" viewBox="0 0 74.4266 19.9919" fill="none" xmlns="http://www.w3.org/2000/svg" xmlns:xlink="http://www.w3.org/1999/xlink">
	<desc>
			Created with Pixso.
	</desc>
	<defs/>
	<path id="Panto" d="M7.30799 5.14984e-05C9.19333 5.14984e-05 10.78 0.63472 12.068 1.90405C13.356 3.17339 14 4.73205 14 6.58005C14 8.42805 13.356 9.98672 12.068 11.2561C10.78 12.5254 9.19333 13.1601 7.30799 13.1601L3.86399 13.1601L3.86399 19.6001L-7.15256e-06 19.6001L-7.15256e-06 5.14984e-05L7.30799 5.14984e-05ZM7.30799 9.54805C8.12933 9.54805 8.81066 9.26805 9.35199 8.70805C9.89333 8.12939 10.164 7.42005 10.164 6.58005C10.164 5.72139 9.89333 5.01205 9.35199 4.45205C8.81066 3.89205 8.12933 3.61205 7.30799 3.61205L3.86399 3.61205L3.86399 9.54805L7.30799 9.54805ZM26.3379 5.60005L29.9499 5.60005L29.9499 19.6001L26.3379 19.6001L26.3379 17.9481C25.2553 19.3107 23.7339 19.9921 21.7739 19.9921C19.9073 19.9921 18.3019 19.2827 16.9579 17.8641C15.6326 16.4267 14.9699 14.6721 14.9699 12.6001C14.9699 10.5281 15.6326 8.78272 16.9579 7.36405C18.3019 5.92672 19.9073 5.20805 21.7739 5.20805C23.7339 5.20805 25.2553 5.88939 26.3379 7.25205L26.3379 5.60005ZM19.6739 15.4561C20.4019 16.1841 21.3259 16.5481 22.4459 16.5481C23.5659 16.5481 24.4899 16.1841 25.2179 15.4561C25.9646 14.7094 26.3379 13.7574 26.3379 12.6001C26.3379 11.4427 25.9646 10.5001 25.2179 9.77205C24.4899 9.02539 23.5659 8.65205 22.4459 8.65205C21.3259 8.65205 20.4019 9.02539 19.6739 9.77205C18.9459 10.5001 18.5819 11.4427 18.5819 12.6001C18.5819 13.7574 18.9459 14.7094 19.6739 15.4561ZM41.2893 5.20805C42.8199 5.20805 44.0799 5.72139 45.0693 6.74805C46.0773 7.77472 46.5813 9.19339 46.5813 11.0041L46.5813 19.6001L42.9693 19.6001L42.9693 11.4521C42.9693 10.5187 42.7173 9.80939 42.2133 9.32405C41.7093 8.82005 41.0373 8.56805 40.1973 8.56805C39.2639 8.56805 38.5173 8.85739 37.9573 9.43605C37.3973 10.0147 37.1173 10.8827 37.1173 12.0401L37.1173 19.6001L33.5053 19.6001L33.5053 5.60005L37.1173 5.60005L37.1173 7.16805C37.9946 5.86139 39.3853 5.20805 41.2893 5.20805ZM57.9534 9.07205L54.7894 9.07205L54.7894 14.8961C54.7894 15.3814 54.9108 15.7361 55.1534 15.9601C55.3961 16.1841 55.7508 16.3147 56.2174 16.3521C56.6841 16.3707 57.2628 16.3614 57.9534 16.3241L57.9534 19.6001C55.4708 19.8801 53.7161 19.6467 52.6894 18.9001C51.6814 18.1534 51.1774 16.8187 51.1774 14.8961L51.1774 9.07205L48.7414 9.07205L48.7414 5.60005L51.1774 5.60005L51.1774 2.77205L54.7894 1.68005L54.7894 5.60005L57.9534 5.60005L57.9534 9.07205ZM72.2706 17.8641C70.8333 19.2827 69.0786 19.9921 67.0066 19.9921C64.9346 19.9921 63.1799 19.2827 61.7426 17.8641C60.324 16.4267 59.6146 14.6721 59.6146 12.6001C59.6146 10.5281 60.324 8.78272 61.7426 7.36405C63.1799 5.92672 64.9346 5.20805 67.0066 5.20805C69.0786 5.20805 70.8333 5.92672 72.2706 7.36405C73.708 8.78272 74.4266 10.5281 74.4266 12.6001C74.4266 14.6721 73.708 16.4267 72.2706 17.8641ZM64.2906 15.3721C65.0186 16.1001 65.924 16.4641 67.0066 16.4641C68.0893 16.4641 68.9946 16.1001 69.7226 15.3721C70.4506 14.6441 70.8146 13.7201 70.8146 12.6001C70.8146 11.4801 70.4506 10.5561 69.7226 9.82805C68.9946 9.10005 68.0893 8.73605 67.0066 8.73605C65.924 8.73605 65.0186 9.10005 64.2906 9.82805C63.5813 10.5561 63.2266 11.4801 63.2266 12.6001C63.2266 13.7201 63.5813 14.6441 64.2906 15.3721Z" fill="#FFFFFF" fill-opacity="1.000000" fill-rule="evenodd"/>
</svg>
