<svg width="18.278625" height="18.278809" viewBox="0 0 18.2786 18.2788" fill="none" xmlns="http://www.w3.org/2000/svg" xmlns:xlink="http://www.w3.org/1999/xlink">
	<desc>
			Created with Pixso.
	</desc>
	<defs>
		<clipPath id="clip324_144">
			<rect id="Star" width="18.278625" height="18.278809" fill="white" fill-opacity="0"/>
		</clipPath>
	</defs>
	<rect id="Star" width="18.278625" height="18.278809" fill="#000000" fill-opacity="0"/>
	<g clip-path="url(#clip324_144)">
		<path id="Vector" d="M13.6523 10.9061C13.455 11.0973 13.3644 11.3738 13.4093 11.6449L14.0864 15.392C14.1435 15.7097 14.0095 16.0311 13.7437 16.2146C13.4832 16.405 13.1367 16.4279 12.8526 16.2755L9.47943 14.5162C9.36214 14.4537 9.2319 14.4202 9.09862 14.4164L8.89223 14.4164C8.82063 14.4271 8.75056 14.45 8.68658 14.485L5.31265 16.2527C5.14587 16.3364 4.957 16.3661 4.77191 16.3364C4.32104 16.2512 4.0202 15.8216 4.09409 15.3684L4.77191 11.6213C4.81686 11.3478 4.72623 11.0699 4.52896 10.8757L1.77881 8.21002C1.5488 7.98682 1.46881 7.65173 1.57391 7.34937C1.67596 7.04779 1.93646 6.82764 2.25101 6.77814L6.03619 6.229C6.32407 6.19934 6.57693 6.02417 6.70642 5.7652L8.37433 2.34552C8.41394 2.26941 8.46497 2.19934 8.52666 2.13989L8.5952 2.08661C8.631 2.047 8.67212 2.01422 8.71782 1.98761L8.80083 1.95709L8.93031 1.90381L9.25095 1.90381C9.53731 1.93353 9.7894 2.10486 9.92116 2.36078L11.6112 5.7652C11.733 6.01428 11.9699 6.18713 12.2433 6.229L16.0285 6.77814C16.3484 6.82385 16.6157 7.04474 16.7216 7.34937C16.8213 7.65479 16.7353 7.98987 16.5007 8.21002L13.6523 10.9061Z" fill="#F6B76F" fill-opacity="0.500000" fill-rule="nonzero"/>
	</g>
</svg>
