<svg width="112.000000" height="55.955566" viewBox="0 0 112 55.9556" fill="none" xmlns="http://www.w3.org/2000/svg" xmlns:xlink="http://www.w3.org/1999/xlink">
	<desc>
			Created with Pixso.
	</desc>
	<defs>
		<filter id="filter_324_42_dd" x="0.000000" y="0.000000" width="112.000000" height="55.955566" filterUnits="userSpaceOnUse" color-interpolation-filters="sRGB">
			<feFlood flood-opacity="0" result="BackgroundImageFix"/>
			<feGaussianBlur in="BackgroundImage" stdDeviation="2.66667"/>
			<feComposite in2="SourceAlpha" operator="in" result="effect_backgroundBlur_1"/>
			<feBlend mode="normal" in="SourceGraphic" in2="effect_backgroundBlur_1" result="shape"/>
		</filter>
		<filter id="filter_324_43_dd" x="-6.892334" y="-3.446289" width="125.784637" height="61.784668" filterUnits="userSpaceOnUse" color-interpolation-filters="sRGB">
			<feFlood flood-opacity="0" result="BackgroundImageFix"/>
			<feGaussianBlur in="BackgroundImage" stdDeviation="3.33333"/>
			<feComposite in2="SourceAlpha" operator="in" result="effect_backgroundBlur_1"/>
			<feColorMatrix in="SourceAlpha" type="matrix" values="0 0 0 0 0 0 0 0 0 0 0 0 0 0 0 0 0 0 127 0" result="hardAlpha"/>
			<feOffset dx="0" dy="3.44615"/>
			<feGaussianBlur stdDeviation="2.29744"/>
			<feComposite in2="hardAlpha" operator="out" k2="-1" k3="1"/>
			<feColorMatrix type="matrix" values="0 0 0 0 0 0 0 0 0 0 0 0 0 0 0 0 0 0 0.1 0"/>
			<feBlend mode="normal" in2="effect_backgroundBlur_1" result="effect_dropShadow_2"/>
			<feBlend mode="normal" in="SourceGraphic" in2="effect_dropShadow_2" result="shape"/>
		</filter>
	</defs>
	<g filter="url(#filter_324_42_dd)">
		<mask id="mask_324_42" fill="white">
			<path id="Union" d="M24 0L88 0C101.255 0 112 10.7451 112 24C112 37.2549 101.255 48 88 48L71.083 48C68.0667 48 65.2447 49.4885 63.5415 51.9778C59.9126 57.2815 52.0874 57.2815 48.4585 51.9778C46.7553 49.4885 43.9333 48 40.917 48L24 48C10.7452 48 0 37.2549 0 24C0 10.7451 10.7452 0 24 0Z" clip-rule="evenodd" fill="" fill-opacity="1.000000" fill-rule="evenodd"/>
		</mask>
		<path id="Union" d="M24 0L88 0C101.255 0 112 10.7451 112 24C112 37.2549 101.255 48 88 48L71.083 48C68.0667 48 65.2447 49.4885 63.5415 51.9778C59.9126 57.2815 52.0874 57.2815 48.4585 51.9778C46.7553 49.4885 43.9333 48 40.917 48L24 48C10.7452 48 0 37.2549 0 24C0 10.7451 10.7452 0 24 0Z" clip-rule="evenodd" fill="#FFFFFF" fill-opacity="0.200000" fill-rule="evenodd" mask="url(#mask_324_42)"/>
	</g>
	<path id="Union" d="M88 0L24 0C10.7452 0 0 10.7451 0 24C0 37.2549 10.7452 48 24 48L40.917 48C43.9333 48 46.7553 49.4885 48.4585 51.9778C52.0874 57.2815 59.9126 57.2815 63.5415 51.9778C65.2447 49.4885 68.0667 48 71.083 48L88 48C101.255 48 112 37.2549 112 24C112 10.7451 101.255 0 88 0ZM15.1178 2.55575Q19.208 0.861572 24 0.861572L88 0.861572Q92.7922 0.861572 96.8826 2.5559Q100.973 4.25018 104.361 7.63867Q107.75 11.0272 109.444 15.1176Q111.138 19.2079 111.138 24Q111.139 28.7919 109.444 32.8821Q107.75 36.9727 104.361 40.3613Q100.973 43.7497 96.8829 45.444Q92.7924 47.1384 88 47.1384L71.083 47.1384Q68.446 47.1384 66.383 48.2265Q64.3197 49.3148 62.8304 51.4915Q61.598 53.2928 59.8904 54.1935Q58.1828 55.0942 56 55.0942Q53.8173 55.0942 52.1097 54.1935Q50.4021 53.2928 49.1696 51.4915Q47.6804 49.3148 45.6171 48.2266Q43.554 47.1384 40.917 47.1384L24 47.1384Q19.208 47.1384 15.1178 45.4443Q11.0273 43.75 7.63861 40.3613Q4.25002 36.9727 2.55574 32.8823Q0.861511 28.792 0.861511 24Q0.861511 19.208 2.55574 15.1177Q4.25002 11.0273 7.63861 7.63867Q11.0273 4.25002 15.1178 2.55575Z" clip-rule="evenodd" fill="#FFFFFF" fill-opacity="0.600000" fill-rule="evenodd"/>
</svg>
